<svg xmlns="http://www.w3.org/2000/svg" width="90" height="90" viewBox="0 0 23.81 23.81"><path fill="red" stroke="#ff1616" stroke-linecap="round" stroke-linejoin="round" stroke-width=".108" d="M4.37 1.06h.26v.26h-.26Zm.78-.49h.26v.26h-.26zm.51 0h.26v.26h-.26zM6.44.1h.26v.25h-.26zm.52 0h.26v.25h-.26zm.77 0H8v.25h-.26zm.52 0h.26v.25h-.26zm2.07 0h.26v.25h-.26zm.52 0h.26v.25h-.26zm.77 0h.26v.25h-.26zm1.3.48h.26v.26h-.26zm.51.5h.26v.25h-.26zm.78 0h.26v.25h-.26zM2.56 2.86h.26v.25h-.26zm.52-.98h.26v.26h-.26zm0 .49h.26v.26h-.26zm-.52.97h.26v.26h-.26zm1.81 0h.26v.26h-.26Zm9.05 0h.26v.26h-.26zm1.3-1.46h.26v.26h-.26zm-.52 1.46h.26v.26h-.26zm1.3-.97h.25v.26h-.26zm0 .49h.25v.25h-.26zm.51.48h.26v.26H16zm-14.23.83h.26v.26h-.26Zm0 .49h.26v.26h-.26Zm0 .49h.26v.26h-.26Zm2.07-.98h.26v.26h-.26zm0 .49h.26v.26h-.26zm1.3.49h.26v.26h-.26zm0 .49h.26v.26h-.26zm8.27-1.47h.26v.26h-.26zm0 .49h.26v.26h-.26zm0 .49h.26v.26h-.26zm-.51.49h.26v.26h-.26zm1.29-1.47h.26v.26h-.26zm.52.49h.26v.26h-.26zm0 .49h.26v.26h-.26zm0 .49h.26v.26h-.26zm2.07-.5h.26v.27h-.26zM1.27 6.48h.26v.26h-.26Zm0 .5h.26v.25h-.26Zm0 .48h.26v.26h-.26Zm0 .49h.26v.26h-.26Zm1.8-1.47h.27v.26h-.26zm0 .5h.27v.25h-.26zm0 .48h.27v.26h-.26zm0 .49h.27v.26h-.26zm3.37-.5h.26v.27h-.26zm5.17 0h.26v.27h-.26zm.52-.97h.26v.26h-.26zm0 .5h.26v.25h-.26zm3.36 0h.26v.25h-.26zm1.3.48h.26v.26h-.26zM1.27 8.76h.26v.26h-.26Zm0 .5h.26v.25h-.26Zm0 .48h.26V10h-.26Zm1.8-.98h.27v.26h-.26zm0 .98h.27V10h-.26zm0 .49h.27v.26h-.26zm3.89-1.47h.26v.26h-.26zm.77.5H8v.25h-.26zm.52-.5h.26v.26h-.26zm0 .5h.26v.25h-.26zm0 .97h.26v.26h-.26zm1.3-1.47h.25v.26h-.26zm0 .5h.25v.25h-.26zm0 .48h.25V10h-.26zm.77-.49h.26v.26h-.26zm5.17.5h.26V10h-.26zm0 .48h.26v.26h-.26zm1.3-.49h.26V10h-.26zm0 .49h.26v.26h-.26zm-15 1.32h.25v.25h-.26Zm.77 0h.26v.25h-.26zm0 .48h.26v.26h-.26zm.52.5h.26v.25h-.26zm.77-.98h.26v.25h-.26zm.52.97h.26v.26h-.26Zm3.88-1.46h.26v.25h-.26zm2.07.49h.26v.25h-.26zm.52.48h.26v.26h-.26zm1.3.5h.25v.25h-.26zm.77 0h.26v.25h-.26zm.51 0h.26v.25h-.26zm.78-.98h.26v.25h-.26zm0 .48h.26v.26h-.26zm.52-.97h.26v.25h-.26zm0 1.46h.26v.26h-.26zm.77-.49h.26v.26h-.26zm0 .5h.26v.25h-.26zm5.18 0h.26v.25h-.26zm-18.89 1.3h.26v.27h-.26Zm0 .5h.26v.25h-.26Zm1.3-.98h.26v.26h-.26zm0 .49h.26v.26h-.26zm-.52.97h.26v.26h-.26zm1.3-1.46h.25v.26h-.26zm0 .49h.25v.26h-.26zm0 .48h.25v.26h-.26zm.51-.48h.26v.26h-.26Zm0 .48h.26v.26h-.26Zm-.52.5h.26v.25h-.26zm.52 0h.26v.25h-.26Zm.78-.98h.26v.26h-.26zm0 .48h.26v.26h-.26zm.51-.48h.26v.26h-.26zm0 .48h.26v.26h-.26zm0 .5h.26v.25h-.26zm.78-1.47h.26v.26h-.26zm0 .49h.26v.26h-.26zm0 .48h.26v.26h-.26zm.52-.97h.26v.26h-.26zm0 .49h.26v.26h-.26zm0 .48h.26v.26h-.26zm-.52.5h.26v.25h-.26zm.52 0h.26v.25h-.26zm.77-.98H8v.26h-.26zm0 .48H8v.26h-.26zm.52-.97h.26v.26h-.26zm0 .49h.26v.26h-.26zm0 .48h.26v.26h-.26zm-.52.5H8v.25h-.26zm.52 0h.26v.25h-.26zm.78-1.47h.26v.26h-.26zm0 .49h.26v.26h-.26zm0 .48h.26v.26h-.26zm.51 0h.26v.26h-.26zm-.51.5h.26v.25h-.26zm.51 0h.26v.25h-.26zm.78-1.47h.26v.26h-.26zm0 .49h.26v.26h-.26zm0 .48h.26v.26h-.26zm.52-.97h.26v.26h-.26zm0 .49h.26v.26h-.26zm0 .48h.26v.26h-.26zm-.52.5h.26v.25h-.26zm.52 0h.26v.25h-.26zm.77-.98h.26v.26h-.26zm0 .48h.26v.26h-.26zm.52-.48h.26v.26h-.26zm0 .48h.26v.26h-.26zm-.52.5h.26v.25h-.26zm.52 0h.26v.25h-.26zm.78-.98h.26v.26h-.26zm0 .48h.26v.26h-.26zm.51-.48h.26v.26h-.26zm0 .48h.26v.26h-.26zm.78-.97h.26v.26h-.26zm0 .49h.26v.26h-.26zm.52-.5h.26v.27h-.26zm0 .5h.26v.26h-.26zm0 .48h.26v.26h-.26zm-.52.5h.26v.25h-.26zm1.81-.5h.26v.26H16zm-.52.5h.26v.25h-.26zm.52 0h.26v.25H16zm.78-1.47h.26v.26h-.26zm0 .49h.26v.26h-.26zm4.4-.5h.25v.27h-.26zm0 .5h.25v.26h-.26zm.77.48h.26v.26h-.26zm0 .5h.26v.25h-.26zm-19.4.82h.26v.26h-.26zm.52.49h.26v.26h-.26zm.77-.49h.26v.26h-.26zm0 .49h.26v.26h-.26zm0 .49h.26v.26h-.26zm.52-.98h.26v.26h-.26Zm0 .49h.26v.26h-.26Zm0 .49h.26v.26h-.26Zm-.52.49h.26v.25h-.26zm.52 0h.26v.25h-.26Zm.78-.5h.26v.27h-.26zm0 .5h.26v.25h-.26zm.51 0h.26v.25h-.26zm.78-1.47h.26v.26h-.26zm0 .49h.26v.26h-.26zm0 .49h.26v.26h-.26zm.52-.98h.26v.26h-.26zm0 .49h.26v.26h-.26zm0 .49h.26v.26h-.26zm-.52.49h.26v.25h-.26zm.52 0h.26v.25h-.26zm.77-.98H8v.26h-.26zm0 .49H8v.26h-.26zm.52-.98h.26v.26h-.26zm0 .49h.26v.26h-.26zm0 .49h.26v.26h-.26zm.78-.98h.26v.26h-.26zm0 .49h.26v.26h-.26zm0 .49h.26v.26h-.26zm.51-.5h.26v.27h-.26zm0 .5h.26v.26h-.26zm.78-.98h.26v.26h-.26zm0 .49h.26v.26h-.26zm0 .49h.26v.26h-.26zm.52-.98h.26v.26h-.26zm0 .49h.26v.26h-.26zm-.52.98h.26v.25h-.26zm1.3-1.47h.25v.26h-.26zm0 .98h.25v.26h-.26zm.51 0h.26v.26h-.26zm.78 0h.26v.26h-.26zm.51-.5h.26v.27h-.26zm0 .5h.26v.26h-.26zm-.51.49h.26v.25h-.26zm1.29-1.47h.26v.26h-.26zm.52.98h.26v.26h-.26zm.77-.98h.26v.26h-.26zm0 .49h.26v.26h-.26zm4.4.98h.26v.25h-.26zm.78-.5h.26v.27h-.26zm.51-.48h.26v.26h-.26zm.78.98h.26v.25h-.26Zm-17.59.82h.26v.26h-.26Zm0 .5h.26v.25h-.26Zm.78-.5h.26v.26h-.26zm0 .5h.26v.25h-.26zm0 .48h.26v.26h-.26zm.51-.98h.26v.26h-.26zm0 .5h.26v.25h-.26zm0 .97h.26v.26h-.26zm.78-1.47h.26v.26h-.26zm0 .5h.26v.25h-.26zm0 .48h.26v.26h-.26zm.52-.49h.26v.26h-.26zm0 .49h.26v.26h-.26zm-.52.49h.26v.26h-.26zm.52 0h.26v.26h-.26zm1.3-.5h.25v.27h-.26zm-.53.5H8v.26h-.26zm.52 0h.26v.26h-.26zm.78-.5h.26v.27h-.26zm0 .5h.26v.26h-.26zm.51 0h.26v.26h-.26zm.78 0h.26v.26h-.26zm3.1-1.47h.26v.26h-.26zm.78 0h.26v.26h-.26zm0 .5h.26v.25h-.26zm0 .48h.26v.26h-.26zm.52.49h.26v.26h-.26zm1.3-.5h.25v.27H16zm.77-.48h.26v.26h-.26zm1.29-.49h.26v.26h-.26zm.52 0h.26v.26h-.26zm1.29.98h.26v.26h-.26zm-.52.49h.26v.26h-.26zm1.3-.5h.26v.27h-.26zm-15 1.32h.25v.26h-.26zm0 .5h.25v.25h-.26zm.77-.5h.26v.26h-.26zm0 .5h.26v.25h-.26zm.52-.5h.26v.26h-.26zm0 .5h.26v.25h-.26zm0 .48h.26v.26h-.26zm.77-.98H8v.26h-.26zm0 .5H8v.25h-.26zm0 .48H8v.26h-.26zm.52-.98h.26v.26h-.26zm0 .5h.26v.25h-.26zm0 .48h.26v.26h-.26zm-.52.49H8v.26h-.26zm.52 0h.26v.26h-.26zm.78-.98h.26v.26h-.26zm0 .49h.26v.26h-.26zm.51-.49h.26v.26h-.26zm0 .49h.26v.26h-.26zm.78-.98h.26v.26h-.26zm0 .5h.26v.25h-.26zm0 .48h.26v.26h-.26zm.52-.98h.26v.26h-.26zm0 .5h.26v.25h-.26zm-.52.97h.26v.26h-.26zm1.3-.49h.25v.26h-.26zm0 .49h.25v.26h-.26zm.51 0h.26v.26h-.26zm.78 0h.26v.26h-.26zm4.4 0h.25v.26h-.26zm.77-.98h.26v.26h-.26zm0 .49h.26v.26h-.26zm.52-.98h.26v.26h-.26zm-12.16 2.3h.26v.25h-.26zm.52.48h.26v.26h-.26zm.77.5H8v.25h-.26zm.52 0h.26v.25h-.26zm1.3 0h.25v.25h-.26zm.77 0h.26v.25h-.26zm.52 0h.26v.25h-.26zm.77-.98h.26v.25h-.26zm0 .48h.26v.26h-.26zm2.59-.48h.26v.25h-.26zm.52 0h.26v.25h-.26zm.77 0h.26v.25h-.26zm.52 0h.26v.25H16z"/></svg>
